HIERARCHY
ROOT Hips
{
	OFFSET 0.0000 0.0000 0.0000
	CHANNELS 6 Xposition Yposition Zposition Zrotation Xrotation Yrotation
	JOINT Spine1
	{
		OFFSET -0.0137 5.0038 -0.0537
		CHANNELS 3 Zrotation Xrotation Yrotation
		JOINT Spine2
		{
			OFFSET -0.0000 7.1253 -0.0298
			CHANNELS 3 Zrotation Xrotation Yrotation
			JOINT Chest
			{
				OFFSET -0.0000 7.5501 -0.8160
				CHANNELS 3 Zrotation Xrotation Yrotation
				JOINT Neck1
				{
					OFFSET -0.1817 26.3113 -0.5533
					CHANNELS 3 Zrotation Xrotation Yrotation
					JOINT Neck2
					{
						OFFSET -0.0000 7.7094 2.3026
						CHANNELS 3 Zrotation Xrotation Yrotation
						JOINT Head
						{
							OFFSET -0.0000 6.1289 1.9537
							CHANNELS 3 Zrotation Xrotation Yrotation
							JOINT Jaw
							{
								OFFSET 0.0026 0.4756 3.0949
								CHANNELS 3 Zrotation Xrotation Yrotation
								End Site
								{
									OFFSET 0.0 1.0 0.0
								}
							}
							JOINT LeftEye
							{
								OFFSET 3.2064 5.3802 7.5869
								CHANNELS 3 Zrotation Xrotation Yrotation
								End Site
								{
									OFFSET 0.0 1.0 0.0
								}
							}
							JOINT RightEye
							{
								OFFSET -3.2224 5.3619 7.5582
								CHANNELS 3 Zrotation Xrotation Yrotation
								End Site
								{
									OFFSET 0.0 1.0 0.0
								}
							}
						}
					}
				}
				JOINT LeftShoulder
				{
					OFFSET 1.6217 23.2372 5.1134
					CHANNELS 3 Zrotation Xrotation Yrotation
					JOINT LeftArm
					{
						OFFSET 14.9198 0.0000 -5.5023
						CHANNELS 3 Zrotation Xrotation Yrotation
						JOINT LeftForeArm
						{
							OFFSET 28.7393 0.0000 -0.0026
							CHANNELS 3 Zrotation Xrotation Yrotation
							JOINT LeftHand
							{
								OFFSET 27.0940 -0.0000 0.0026
								CHANNELS 3 Zrotation Xrotation Yrotation
								JOINT LeftHandThumbEnd
								{
									OFFSET 12.2686 -3.2202 4.8331
									CHANNELS 3 Zrotation Xrotation Yrotation
									End Site
									{
										OFFSET 0.0 1.0 0.0
									}
								}
								JOINT LeftHandMiddleEnd
								{
									OFFSET 19.0120 -0.3129 -0.0340
									CHANNELS 3 Zrotation Xrotation Yrotation
									End Site
									{
										OFFSET 0.0 1.0 0.0
									}
								}
							}
						}
					}
				}
				JOINT RightShoulder
				{
					OFFSET -1.3801 23.1803 5.2142
					CHANNELS 3 Zrotation Xrotation Yrotation
					JOINT RightArm
					{
						OFFSET -15.0372 0.0000 -5.5456
						CHANNELS 3 Zrotation Xrotation Yrotation
						JOINT RightForeArm
						{
							OFFSET -28.7366 0.0000 -0.0026
							CHANNELS 3 Zrotation Xrotation Yrotation
							JOINT RightHand
							{
								OFFSET -27.1336 -0.0000 0.0026
								CHANNELS 3 Zrotation Xrotation Yrotation
								JOINT RightHandThumbEnd
								{
									OFFSET -12.2642 -3.2115 4.8040
									CHANNELS 3 Zrotation Xrotation Yrotation
									End Site
									{
										OFFSET 0.0 1.0 0.0
									}
								}
								JOINT RightHandMiddleEnd
								{
									OFFSET -19.0006 -0.3066 -0.0316
									CHANNELS 3 Zrotation Xrotation Yrotation
									End Site
									{
										OFFSET 0.0 1.0 0.0
									}
								}
							}
						}
					}
				}
			}
		}
	}
	JOINT LeftLeg
	{
		OFFSET 10.0432 -8.4345 2.5957
		CHANNELS 3 Zrotation Xrotation Yrotation
		JOINT LeftShin
		{
			OFFSET -0.0000 -43.2218 -0.8029
			CHANNELS 3 Zrotation Xrotation Yrotation
			JOINT LeftFoot
			{
				OFFSET 0.0000 -42.1551 -3.4815
				CHANNELS 3 Zrotation Xrotation Yrotation
				JOINT LeftToeBase
				{
					OFFSET 0.0000 -5.0595 13.2315
					CHANNELS 3 Zrotation Xrotation Yrotation
					End Site
					{
						OFFSET 0.0 1.0 0.0
					}
				}
			}
		}
	}
	JOINT RightLeg
	{
		OFFSET -10.0473 -8.2953 2.6203
		CHANNELS 3 Zrotation Xrotation Yrotation
		JOINT RightShin
		{
			OFFSET 0.0000 -43.3622 -0.8056
			CHANNELS 3 Zrotation Xrotation Yrotation
			JOINT RightFoot
			{
				OFFSET 0.0000 -42.1174 -3.4784
				CHANNELS 3 Zrotation Xrotation Yrotation
				JOINT RightToeBase
				{
					OFFSET -0.0000 -5.0796 13.2842
					CHANNELS 3 Zrotation Xrotation Yrotation
					End Site
					{
						OFFSET 0.0 1.0 0.0
					}
				}
			}
		}
	}
}
MOTION
Frames: 16
Frame Time: 0.033333
-68.9825 17.6078 25.4273 75.8261 34.5868 43.9846 -5.0015 30.1809 -2.7527 -2.2142 3.8266 -2.1234 -3.0983 10.2683 -5.4911 24.5333 21.0634 -1.3964 6.6188 -3.1082 0.9702 4.8290 2.3812 -5.3476 0.0087 -0.1779 -0.0481 0.1904 -10.5367 -4.1284 -0.1828 -10.7002 3.9454 13.4046 15.6118 -8.7376 -19.4469 -33.5892 -18.5218 2.8365 2.4706 -118.2149 49.7483 10.0664 -0.7532 -15.7730 10.7371 14.9487 -60.3358 1.3351 0.6034 6.3180 4.9528 1.4541 92.8717 2.1049 -11.0420 11.7821 4.8934 158.8782 -122.7447 41.5450 -71.8299 16.6580 7.7789 -16.4215 50.7478 -4.7162 -4.2208 -46.7003 -77.2815 82.2565 -173.3113 71.2537 -174.9640 -8.9922 -3.0435 1.7718 1.7727 -3.5793 -2.9105 -178.4874 -13.1701 164.6718 176.4982 8.3822 -178.1411 30.3904 -10.4398 62.3209 -0.5901 -0.7879 0.0914
-69.0185 17.4398 25.6868 73.3198 35.0347 43.4838 -4.9199 30.1040 -2.8506 -2.1202 3.7743 -2.5179 -2.8634 10.6296 -5.6495 24.2372 21.7090 -0.2685 6.3772 -3.1524 0.5503 4.6423 2.6141 -5.5584 0.0796 -0.2140 0.0345 0.2978 -10.6680 -4.1021 -0.1426 -10.8621 4.0698 13.5536 15.5998 -8.4538 -20.6110 -34.7395 -17.3430 2.4548 2.6781 -119.4796 49.4921 10.1442 0.8334 -16.0425 10.6803 14.8758 -60.5491 1.4492 0.6122 6.9315 5.4708 1.2529 91.7832 3.1605 -10.2350 10.6442 5.1924 157.4866 -118.7250 42.1803 -65.4164 16.6718 7.9922 -16.6177 50.9064 -4.8341 -4.2950 -43.2887 -78.4010 77.8717 -172.9371 73.3773 -174.6577 -9.4330 -4.2329 4.7904 1.8011 -3.2872 -2.9647 178.8339 -13.1617 166.7793 176.4363 7.8179 -177.7822 31.2388 -10.0267 61.6999 -0.5060 -0.6719 -0.0031
-69.1126 17.2986 25.9196 71.4001 35.4567 42.9432 -5.2287 30.1666 -3.1046 -2.0166 3.7421 -2.6842 -2.6777 10.7276 -5.8210 23.5023 22.5416 0.2488 6.1948 -3.2066 0.3357 4.3081 3.1328 -5.4107 0.0332 -0.2661 0.0088 0.2463 -10.7607 -4.1498 -0.1840 -10.9838 4.0868 13.2730 15.3743 -8.3141 -21.3154 -35.4894 -16.4445 2.1574 2.6665 -120.5615 49.0228 10.0333 1.8483 -16.1067 10.8619 15.1536 -60.9756 1.5574 0.7813 7.3788 5.8850 0.7864 91.0586 4.3684 -9.0183 9.4938 5.5483 156.0338 -114.9758 42.6048 -58.9593 16.7152 8.2192 -16.7597 51.1067 -4.9328 -4.2038 -38.4452 -79.6977 72.7722 -172.7472 73.3513 -174.4450 -9.9537 -5.2094 7.4515 1.7966 -2.8079 -2.9394 176.8549 -12.9742 168.7664 176.5416 7.1605 -177.4583 31.9616 -9.6070 60.9938 -0.3462 -0.9714 -0.0172
-69.1275 17.0567 26.0245 70.0005 35.5106 42.6149 -5.3300 30.3490 -3.2521 -1.9306 3.7523 -2.9450 -2.6841 10.8395 -6.1955 22.8840 23.4149 0.9239 6.0704 -3.3197 0.2079 3.9658 3.6523 -5.3380 0.0312 -0.3109 -0.0002 0.2809 -10.9598 -4.1904 -0.2257 -11.1789 4.1182 13.0942 15.1018 -8.1819 -21.9025 -36.2541 -15.6007 1.7712 2.5004 -121.8330 48.8464 10.2017 2.8815 -16.1803 10.9400 15.2283 -61.1931 1.5359 0.7906 7.7961 6.0773 0.0393 90.4118 5.7562 -7.7704 8.6253 5.6914 154.7127 -110.8336 43.0498 -52.4845 16.4883 8.2394 -16.8761 50.9698 -4.8918 -4.1374 -34.6922 -80.6775 68.8122 -172.9130 72.9950 -174.5936 -9.9296 -6.1481 8.6628 1.7679 -2.5801 -2.8811 175.2606 -12.5423 170.1683 176.5624 6.5140 -177.0961 32.6865 -9.0524 60.0691 -0.3413 -0.8341 -0.0468
-69.2535 17.0227 26.1066 69.1492 35.4296 42.5268 -5.2681 30.6236 -3.4316 -1.8804 3.7915 -3.0807 -2.8773 10.9002 -6.7812 22.0027 24.4985 1.2305 5.8486 -3.4384 0.3028 3.7003 4.2291 -5.1177 0.0139 -0.3324 -0.0385 0.2476 -11.1701 -4.2418 -0.2313 -11.3621 4.1086 12.8931 14.7608 -8.1277 -22.2795 -37.1834 -14.6719 1.1975 2.1058 -123.1389 48.8398 10.5362 3.9078 -16.2302 10.9957 15.2665 -61.3295 1.4686 0.8468 8.1757 6.2515 -0.6951 89.7635 6.9624 -6.4109 7.9601 5.6758 153.6167 -107.1872 43.2358 -46.8426 16.3128 8.1389 -16.9197 50.6858 -4.8601 -4.0159 -34.0572 -81.2417 68.0564 -173.0301 72.8137 -174.6557 -9.9834 -6.7659 9.2191 1.7637 -2.4458 -2.7800 174.0769 -12.2995 170.7298 176.6604 6.2612 -176.8713 33.3880 -8.5200 59.3912 -0.3946 -0.5275 -0.0570
-69.3549 17.2275 26.1355 68.6573 35.3109 42.5831 -5.0983 30.8931 -3.5678 -1.9301 3.8013 -3.2060 -2.9728 11.1458 -7.2551 21.0259 25.4805 1.3752 5.7153 -3.4883 0.5776 3.3119 4.5824 -5.1141 0.0323 -0.3249 -0.0239 0.2101 -11.2976 -4.2065 -0.1578 -11.4528 4.1077 12.7628 14.4583 -8.2593 -22.5549 -38.2903 -13.6670 0.6930 1.7513 -124.3164 48.5440 10.7338 4.7463 -16.2407 10.9323 15.2309 -61.2085 1.3953 1.0047 8.4163 6.4520 -1.3142 88.9820 7.7396 -5.3405 7.3521 5.4968 152.9527 -104.2405 43.2461 -42.6918 16.3330 7.9981 -16.9610 50.4957 -4.9199 -4.0300 -36.0368 -81.4918 69.8454 -172.8481 72.8323 -174.4605 -9.9258 -6.8597 9.7004 1.7705 -2.3254 -2.7020 173.1302 -12.5022 170.5888 176.7239 6.4796 -176.8724 33.9486 -8.0771 59.0579 -0.4375 -0.2068 -0.0671
-69.4611 17.4933 26.1920 68.3892 35.1228 42.6702 -5.0573 31.1625 -3.7242 -1.9361 3.7977 -3.3614 -3.0034 11.4492 -7.5308 20.1822 26.3061 1.5127 5.6352 -3.5025 0.9262 2.9853 4.5690 -5.1390 0.0879 -0.3057 0.0592 0.2179 -11.3624 -4.0979 -0.0526 -11.4556 4.1547 12.6841 14.2304 -8.3926 -22.7319 -39.5950 -12.9119 0.3860 1.3334 -125.2080 47.8412 10.5013 5.1134 -16.3011 10.8252 15.1843 -61.0534 1.3854 1.1864 8.7479 6.5669 -1.8865 88.0818 8.2860 -4.7730 7.0771 5.3820 152.6091 -102.1640 42.8089 -40.1663 16.4709 8.0036 -16.9714 50.5722 -4.9632 -4.1639 -38.1122 -81.4944 71.6590 -172.4613 72.8937 -174.1278 -9.6347 -6.5956 10.2069 1.7531 -2.1460 -2.6674 172.5591 -13.0276 170.0493 176.7598 6.9142 -176.9895 34.3960 -7.6880 59.1989 -0.4201 -0.0340 -0.0722
-69.5679 17.5381 26.2368 68.2670 34.9406 42.6233 -5.2284 31.4787 -3.8550 -1.9197 3.8192 -3.4558 -2.9747 11.7280 -7.7187 19.3264 26.8442 1.6361 5.5301 -3.5197 1.1834 2.6823 4.3500 -5.2486 0.1349 -0.3023 0.1378 0.2505 -11.3568 -3.9898 0.0116 -11.3918 4.1952 12.5824 14.1156 -8.5030 -22.8040 -40.9930 -12.4134 0.2952 1.0391 -125.9808 46.8552 9.8101 5.2607 -16.2518 10.8208 15.2008 -61.0235 1.4698 1.2795 9.3073 6.5979 -2.2197 87.0607 8.8208 -4.9520 7.1618 5.4235 152.6564 -100.6706 41.9733 -38.4575 16.5269 8.1301 -16.9697 50.7564 -5.0106 -4.2674 -38.5349 -81.4054 71.8384 -172.0015 72.8157 -173.7677 -9.2558 -6.4095 10.7664 1.7431 -1.8957 -2.6708 172.2710 -13.4506 169.6792 176.7223 7.0523 -177.0622 34.7175 -7.3261 59.4583 -0.3758 0.1568 -0.0766
-69.5985 17.4302 26.2180 68.0163 34.7801 42.3245 -5.4542 31.8791 -3.9677 -1.9134 3.8585 -3.4399 -2.8986 11.8155 -7.8614 18.3542 27.3466 1.6195 5.4175 -3.6113 1.2157 2.5102 4.3543 -5.3849 0.1394 -0.3145 0.1696 0.2862 -11.3957 -3.9495 -0.0135 -11.3773 4.2236 12.3227 14.1136 -8.4080 -22.5250 -42.2062 -12.6133 0.3384 0.8491 -126.3412 46.1172 9.3182 5.3776 -16.1249 10.9440 15.2286 -61.1622 1.5182 1.1779 9.8648 6.5149 -2.4700 86.2918 9.5157 -5.0198 7.1550 5.4582 152.6426 -99.9815 41.4284 -37.4037 16.3679 8.2743 -16.9516 50.7925 -4.9609 -4.3286 -36.1651 -81.4234 69.2015 -171.9699 72.6258 -173.7899 -9.0808 -6.4841 11.4406 1.7183 -1.5890 -2.6753 172.2216 -13.8976 169.4509 176.7479 6.9844 -177.0837 35.1411 -6.8749 59.7926 -0.3511 0.5802 -0.0804
-69.5866 17.1130 26.2792 68.0148 34.4450 42.0594 -5.6475 32.3390 -4.1651 -1.8562 3.8779 -3.3706 -2.9245 11.6507 -8.0195 17.6185 27.8453 1.6196 5.3929 -3.6587 1.1163 2.5251 4.4984 -5.4865 0.1327 -0.3405 0.1349 0.2735 -11.4395 -3.9613 -0.0159 -11.3507 4.1761 12.0530 13.9047 -8.2561 -22.2069 -43.0522 -13.4099 0.4368 1.0504 -126.4508 45.6332 8.9020 5.7817 -16.1893 11.0490 15.2395 -61.4507 1.4332 1.1430 10.3050 6.5959 -2.7117 85.9129 10.1156 -4.7765 6.7513 5.3019 152.5059 -100.2874 41.8721 -37.3623 16.0378 8.3036 -16.8802 50.6030 -4.8720 -4.3286 -33.4874 -81.4184 66.0234 -172.0209 72.2026 -173.8107 -9.1872 -6.1732 11.5803 1.7807 -2.0449 -2.6600 172.3971 -13.9835 169.3565 176.8746 6.5607 -177.1485 35.4516 -5.9414 59.5503 -0.2493 1.2067 -0.0654
-69.5702 16.8899 26.2675 67.5927 34.2235 41.4417 -5.7621 32.7969 -4.1982 -1.9203 3.9374 -3.3770 -2.7624 11.7273 -8.1668 16.9632 27.9613 1.7942 5.5167 -3.6797 0.9447 2.4016 4.5196 -5.7975 0.1345 -0.3492 0.1270 0.3016 -11.4741 -3.9612 -0.0398 -11.3429 4.1683 11.7117 13.9099 -8.0848 -21.9599 -43.9024 -13.5841 0.5297 1.0109 -126.6610 45.4743 8.4875 5.8081 -16.1232 11.0898 15.2109 -61.4992 1.4231 1.1895 10.6951 6.4349 -2.8835 85.4649 10.7961 -4.9030 6.7513 5.2964 152.5829 -100.0119 41.6695 -36.8838 15.9832 8.3083 -16.8301 50.6681 -4.7999 -4.2743 -29.3379 -81.3741 61.7466 -172.4676 71.9745 -174.3710 -8.6509 -6.1342 11.7975 1.7974 -1.7590 -2.6015 172.4119 -14.4999 169.1662 176.8827 6.2901 -177.1075 35.3888 -5.3053 59.5740 -0.2729 1.7199 -0.0884
-69.5110 16.7162 26.2647 67.2282 34.0555 40.9156 -5.8164 33.1472 -4.2232 -1.9858 3.9713 -3.4065 -2.6375 11.8568 -8.2743 16.5221 28.0439 1.9109 5.6669 -3.6586 0.7497 2.2590 4.4602 -6.1577 0.1417 -0.3535 0.1170 0.3257 -11.5075 -3.9639 -0.0488 -11.3399 4.1517 11.4211 13.8826 -7.9162 -21.7812 -44.4755 -13.6831 0.7466 0.9122 -126.8344 45.4283 8.1738 5.7580 -16.0699 11.0635 15.1753 -61.4527 1.3917 1.2174 11.0783 6.3767 -3.0750 85.1249 11.2880 -4.8891 6.7212 5.4276 152.6434 -99.5105 41.4000 -36.3483 15.9530 8.2695 -16.8026 50.6966 -4.7483 -4.2119 -25.6729 -81.3208 57.9718 -172.8990 71.6940 -174.8771 -8.3111 -6.1413 12.0704 1.8002 -1.4962 -2.5657 172.3242 -14.8798 169.0589 176.8341 6.0185 -177.0941 35.3320 -4.6789 59.5078 -0.2891 2.0751 -0.1338
-69.4562 16.5771 26.2977 67.0013 34.0135 40.5286 -5.8493 33.3931 -4.2660 -2.0103 3.9774 -3.4876 -2.5886 11.9080 -8.4026 16.1447 28.1501 1.9671 5.7706 -3.6376 0.4862 2.1876 4.4084 -6.5914 0.1314 -0.3592 0.0924 0.3329 -11.5590 -3.9791 -0.0772 -11.3574 4.1265 11.1642 13.8804 -7.6734 -21.8267 -45.0381 -13.6149 0.9499 0.8191 -126.9627 45.4186 8.0472 5.6845 -16.0473 11.0270 15.0958 -61.5009 1.3291 1.1662 11.3681 6.3877 -3.2391 84.8982 11.6579 -4.7568 6.6420 5.5655 152.5827 -99.0610 41.1920 -35.8789 15.8648 8.2173 -16.7665 50.6413 -4.6933 -4.1127 -23.3571 -81.2441 55.6509 -173.2152 71.3991 -175.2521 -7.9411 -6.1635 12.2334 1.7983 -1.3633 -2.5409 172.2957 -15.1160 168.9004 176.8340 5.8268 -177.0740 35.4078 -3.9966 59.5357 -0.3071 2.3180 -0.1855
-69.4000 16.4905 26.3504 66.8914 34.0981 40.2483 -5.8423 33.5666 -4.3080 -2.0212 3.9929 -3.5791 -2.5587 11.8740 -8.5482 15.6950 28.2404 1.8983 5.8766 -3.5938 0.1217 2.2663 4.3828 -6.9364 0.1108 -0.3602 0.0600 0.3290 -11.6285 -3.9988 -0.1164 -11.3880 4.0932 10.8777 13.8907 -7.5248 -22.1333 -45.7215 -13.1247 1.0231 0.6814 -127.1445 45.3748 8.0809 5.7057 -16.0215 11.0307 15.0446 -61.5208 1.2900 1.0794 11.6401 6.4667 -3.3618 84.6352 11.8478 -4.5080 6.5380 5.6507 152.4830 -98.9090 41.0695 -35.5679 15.7653 8.1479 -16.7535 50.4794 -4.7075 -4.0806 -21.9824 -81.1780 54.3159 -173.4232 71.1276 -175.4512 -7.5824 -6.2503 12.4233 1.8140 -1.3341 -2.5190 172.1816 -15.1568 168.7925 176.7905 5.6625 -177.0658 35.5253 -3.3003 59.5538 -0.3296 2.4979 -0.2302
-69.3469 16.4677 26.4208 66.8197 34.2195 40.0968 -5.7853 33.6224 -4.3630 -2.0069 4.0152 -3.6898 -2.5520 11.8641 -8.6836 15.3132 28.3064 1.8526 5.9927 -3.5358 -0.1805 2.4248 4.4542 -7.1923 0.1017 -0.3497 0.0478 0.3361 -11.6858 -4.0041 -0.1424 -11.4071 4.0803 10.6081 13.9342 -7.4176 -22.6167 -46.5245 -12.3529 1.0351 0.4752 -127.2744 45.0599 8.1577 5.6106 -15.9589 11.0110 15.0159 -61.4560 1.2869 1.1038 11.8644 6.5964 -3.4391 84.3488 11.8512 -4.2072 6.3695 5.6533 152.3258 -98.6704 41.0801 -35.1207 15.7108 8.0549 -16.7187 50.3333 -4.7575 -4.0611 -21.2362 -81.1592 53.6598 -173.5486 70.9136 -175.5625 -7.2491 -6.3770 12.5455 1.8207 -1.3343 -2.5068 172.0018 -15.0679 168.6907 176.7370 5.5801 -177.0909 35.7027 -2.6725 59.5130 -0.3369 2.5983 -0.2441
-69.2629 16.5035 26.4982 66.8016 34.3005 39.9934 -5.7428 33.6566 -4.4511 -1.9929 4.0242 -3.8273 -2.5416 11.8506 -8.7640 15.0099 28.3674 1.7984 6.1028 -3.4868 -0.4000 2.5004 4.4284 -7.4837 0.1173 -0.3326 0.0599 0.3544 -11.7190 -3.9943 -0.1293 -11.4251 4.0902 10.3723 13.9725 -7.3848 -23.2419 -47.3289 -11.4004 0.9350 0.2581 -127.3223 44.6714 8.1791 5.4538 -16.0527 10.9977 15.0102 -61.5163 1.2899 1.1649 12.0566 6.7870 -3.5134 84.1266 11.7649 -3.9564 6.2721 5.6677 152.1739 -98.3747 41.1375 -34.6100 15.7260 7.9969 -16.6615 50.2972 -4.7657 -4.0629 -20.7672 -81.1064 53.2738 -173.5246 70.7261 -175.5017 -6.9718 -6.5348 12.6426 1.8088 -1.4082 -2.4983 171.9044 -14.9405 168.4572 176.6748 5.5144 -177.1337 35.9404 -2.1935 59.5918 -0.3358 2.5732 -0.2355
